<svg id="visual" viewBox="0 0 900 450" width="900" height="450" xmlns="http://www.w3.org/2000/svg" xmlns:xlink="http://www.w3.org/1999/xlink" version="1.1"><path d="M0 136L82 82L164 168L245 145L327 109L409 150L491 154L573 82L655 69L736 132L818 127L900 118L900 0L818 0L736 0L655 0L573 0L491 0L409 0L327 0L245 0L164 0L82 0L0 0Z" fill="#fcaf3c"></path><path d="M0 190L82 145L164 240L245 231L327 159L409 181L491 217L573 168L655 118L736 213L818 181L900 159L900 116L818 125L736 130L655 67L573 80L491 152L409 148L327 107L245 143L164 166L82 80L0 134Z" fill="#b6af37"></path><path d="M0 298L82 280L164 330L245 316L327 321L409 294L491 339L573 330L655 303L736 330L818 294L900 312L900 157L818 179L736 211L655 116L573 166L491 215L409 179L327 157L245 229L164 238L82 143L0 188Z" fill="#77a64c"></path><path d="M0 357L82 352L164 406L245 375L327 384L409 352L491 384L573 357L655 343L736 361L818 343L900 379L900 310L818 292L736 328L655 301L573 328L491 337L409 292L327 319L245 314L164 328L82 278L0 296Z" fill="#3e9664"></path><path d="M0 451L82 451L164 451L245 451L327 451L409 451L491 451L573 451L655 451L736 451L818 451L900 451L900 377L818 341L736 359L655 341L573 355L491 382L409 350L327 382L245 373L164 404L82 350L0 355Z" fill="#038373"></path></svg>