<svg id="visual" viewBox="0 0 900 600" width="900" height="600" xmlns="http://www.w3.org/2000/svg" xmlns:xlink="http://www.w3.org/1999/xlink" version="1.1"><path d="M0 109L13.7 99C27.3 89 54.7 69 82 62C109.3 55 136.7 61 163.8 70C191 79 218 91 245.2 97C272.3 103 299.7 103 327 104C354.3 105 381.7 107 409 107C436.3 107 463.7 105 491 107C518.3 109 545.7 115 573 115C600.3 115 627.7 109 654.8 102C682 95 709 87 736.2 78C763.3 69 790.7 59 818 60C845.3 61 872.7 73 886.3 79L900 85L900 0L886.3 0C872.7 0 845.3 0 818 0C790.7 0 763.3 0 736.2 0C709 0 682 0 654.8 0C627.7 0 600.3 0 573 0C545.7 0 518.3 0 491 0C463.7 0 436.3 0 409 0C381.7 0 354.3 0 327 0C299.7 0 272.3 0 245.2 0C218 0 191 0 163.8 0C136.7 0 109.3 0 82 0C54.7 0 27.3 0 13.7 0L0 0Z" fill="#6198ff"></path><path d="M0 205L13.7 203C27.3 201 54.7 197 82 194C109.3 191 136.7 189 163.8 192C191 195 218 203 245.2 199C272.3 195 299.7 179 327 172C354.3 165 381.7 167 409 169C436.3 171 463.7 173 491 187C518.3 201 545.7 227 573 232C600.3 237 627.7 221 654.8 218C682 215 709 225 736.2 214C763.3 203 790.7 171 818 157C845.3 143 872.7 147 886.3 149L900 151L900 83L886.3 77C872.7 71 845.3 59 818 58C790.7 57 763.3 67 736.2 76C709 85 682 93 654.8 100C627.7 107 600.3 113 573 113C545.7 113 518.3 107 491 105C463.7 103 436.3 105 409 105C381.7 105 354.3 103 327 102C299.7 101 272.3 101 245.2 95C218 89 191 77 163.8 68C136.7 59 109.3 53 82 60C54.7 67 27.3 87 13.7 97L0 107Z" fill="#3c80ff"></path><path d="M0 397L13.7 387C27.3 377 54.7 357 82 362C109.3 367 136.7 397 163.8 411C191 425 218 423 245.2 401C272.3 379 299.7 337 327 332C354.3 327 381.7 359 409 376C436.3 393 463.7 395 491 400C518.3 405 545.7 413 573 402C600.3 391 627.7 361 654.8 362C682 363 709 395 736.2 396C763.3 397 790.7 367 818 356C845.3 345 872.7 353 886.3 357L900 361L900 149L886.3 147C872.7 145 845.3 141 818 155C790.7 169 763.3 201 736.2 212C709 223 682 213 654.8 216C627.7 219 600.3 235 573 230C545.7 225 518.3 199 491 185C463.7 171 436.3 169 409 167C381.7 165 354.3 163 327 170C299.7 177 272.3 193 245.2 197C218 201 191 193 163.8 190C136.7 187 109.3 189 82 192C54.7 195 27.3 199 13.7 201L0 203Z" fill="#0066ff"></path><path d="M0 469L13.7 462C27.3 455 54.7 441 82 444C109.3 447 136.7 467 163.8 473C191 479 218 471 245.2 450C272.3 429 299.7 395 327 398C354.3 401 381.7 441 409 463C436.3 485 463.7 489 491 489C518.3 489 545.7 485 573 474C600.3 463 627.7 445 654.8 444C682 443 709 459 736.2 456C763.3 453 790.7 431 818 419C845.3 407 872.7 405 886.3 404L900 403L900 359L886.3 355C872.7 351 845.3 343 818 354C790.7 365 763.3 395 736.2 394C709 393 682 361 654.8 360C627.7 359 600.3 389 573 400C545.7 411 518.3 403 491 398C463.7 393 436.3 391 409 374C381.7 357 354.3 325 327 330C299.7 335 272.3 377 245.2 399C218 421 191 423 163.8 409C136.7 395 109.3 365 82 360C54.7 355 27.3 375 13.7 385L0 395Z" fill="#0059dd"></path><path d="M0 601L13.7 601C27.3 601 54.7 601 82 601C109.3 601 136.7 601 163.8 601C191 601 218 601 245.2 601C272.3 601 299.7 601 327 601C354.3 601 381.7 601 409 601C436.3 601 463.7 601 491 601C518.3 601 545.7 601 573 601C600.3 601 627.7 601 654.8 601C682 601 709 601 736.2 601C763.3 601 790.7 601 818 601C845.3 601 872.7 601 886.3 601L900 601L900 401L886.3 402C872.7 403 845.3 405 818 417C790.7 429 763.3 451 736.2 454C709 457 682 441 654.8 442C627.7 443 600.3 461 573 472C545.7 483 518.3 487 491 487C463.7 487 436.3 483 409 461C381.7 439 354.3 399 327 396C299.7 393 272.3 427 245.2 448C218 469 191 477 163.8 471C136.7 465 109.3 445 82 442C54.7 439 27.3 453 13.7 460L0 467Z" fill="#004cbb"></path></svg>