<svg id="visual" viewBox="0 0 900 600" width="900" height="600" xmlns="http://www.w3.org/2000/svg" xmlns:xlink="http://www.w3.org/1999/xlink" version="1.1"><path d="M0 37L82 49L164 67L245 55L327 85L409 67L491 79L573 43L655 49L736 85L818 49L900 31L900 0L818 0L736 0L655 0L573 0L491 0L409 0L327 0L245 0L164 0L82 0L0 0Z" fill="#001122"></path><path d="M0 109L82 79L164 91L245 133L327 133L409 127L491 145L573 67L655 115L736 133L818 91L900 97L900 29L818 47L736 83L655 47L573 41L491 77L409 65L327 83L245 53L164 65L82 47L0 35Z" fill="#1f2245"></path><path d="M0 163L82 139L164 157L245 157L327 199L409 169L491 181L573 133L655 157L736 187L818 115L900 139L900 95L818 89L736 131L655 113L573 65L491 143L409 125L327 131L245 131L164 89L82 77L0 107Z" fill="#512b5e"></path><path d="M0 289L82 217L164 241L245 283L327 253L409 307L491 331L573 331L655 355L736 355L818 253L900 355L900 137L818 113L736 185L655 155L573 131L491 179L409 167L327 197L245 155L164 155L82 137L0 161Z" fill="#8a2c67"></path><path d="M0 355L82 355L164 289L245 379L327 343L409 397L491 439L573 409L655 427L736 427L818 385L900 427L900 353L818 251L736 353L655 353L573 329L491 329L409 305L327 251L245 281L164 239L82 215L0 287Z" fill="#bf315d"></path><path d="M0 427L82 403L164 355L245 415L327 433L409 487L491 481L573 475L655 499L736 511L818 499L900 487L900 425L818 383L736 425L655 425L573 407L491 437L409 395L327 341L245 377L164 287L82 353L0 353Z" fill="#e64b43"></path><path d="M0 601L82 601L164 601L245 601L327 601L409 601L491 601L573 601L655 601L736 601L818 601L900 601L900 485L818 497L736 509L655 497L573 473L491 479L409 485L327 431L245 413L164 353L82 401L0 425Z" fill="#f7770f"></path></svg>