<svg id="visual" viewBox="0 0 900 450" width="900" height="450" xmlns="http://www.w3.org/2000/svg" xmlns:xlink="http://www.w3.org/1999/xlink" version="1.1"><path d="M0 28L82 37L164 51L245 42L327 64L409 51L491 60L573 33L655 37L736 64L818 37L900 24L900 0L818 0L736 0L655 0L573 0L491 0L409 0L327 0L245 0L164 0L82 0L0 0Z" fill="#f7770f"></path><path d="M0 82L82 60L164 69L245 100L327 100L409 96L491 109L573 51L655 87L736 100L818 69L900 73L900 22L818 35L736 62L655 35L573 31L491 58L409 49L327 62L245 40L164 49L82 35L0 26Z" fill="#e64b43"></path><path d="M0 123L82 105L164 118L245 118L327 150L409 127L491 136L573 100L655 118L736 141L818 87L900 105L900 71L818 67L736 98L655 85L573 49L491 107L409 94L327 98L245 98L164 67L82 58L0 80Z" fill="#bf315d"></path><path d="M0 217L82 163L164 181L245 213L327 190L409 231L491 249L573 249L655 267L736 267L818 190L900 267L900 103L818 85L736 139L655 116L573 98L491 134L409 125L327 148L245 116L164 116L82 103L0 121Z" fill="#8a2c67"></path><path d="M0 267L82 267L164 217L245 285L327 258L409 298L491 330L573 307L655 321L736 321L818 289L900 321L900 265L818 188L736 265L655 265L573 247L491 247L409 229L327 188L245 211L164 179L82 161L0 215Z" fill="#512b5e"></path><path d="M0 321L82 303L164 267L245 312L327 325L409 366L491 361L573 357L655 375L736 384L818 375L900 366L900 319L818 287L736 319L655 319L573 305L491 328L409 296L327 256L245 283L164 215L82 265L0 265Z" fill="#1f2245"></path><path d="M0 451L82 451L164 451L245 451L327 451L409 451L491 451L573 451L655 451L736 451L818 451L900 451L900 364L818 373L736 382L655 373L573 355L491 359L409 364L327 323L245 310L164 265L82 301L0 319Z" fill="#001122"></path></svg>